<svg width="1200" height="800" viewBox="0 0 1200 800" xmlns="http://www.w3.org/2000/svg">
  <rect width="1200" height="800" fill="#ffffff" stroke="#111111" stroke-width="2" />
  <text x="40" y="45" font-family="Arial" font-size="24" fill="#111111">Calendar View (Day / Week)</text>

  <rect x="40" y="70" width="1120" height="50" fill="#f2f2f2" stroke="#111111" />
  <text x="60" y="102" font-family="Arial" font-size="16">Month ▾</text>
  <text x="200" y="102" font-family="Arial" font-size="16">Today</text>
  <text x="300" y="102" font-family="Arial" font-size="16">Search</text>
  <text x="1020" y="102" font-family="Arial" font-size="16">Day | Week | Month</text>

  <rect x="40" y="140" width="150" height="610" fill="#fafafa" stroke="#111111" />
  <text x="55" y="170" font-family="Arial" font-size="14">Mini Calendar</text>
  <rect x="55" y="185" width="120" height="120" fill="#ffffff" stroke="#111111" />
  <text x="55" y="335" font-family="Arial" font-size="14">Calendars</text>
  <rect x="55" y="350" width="120" height="120" fill="#ffffff" stroke="#111111" />
  <text x="55" y="515" font-family="Arial" font-size="14">People</text>
  <rect x="55" y="530" width="120" height="160" fill="#ffffff" stroke="#111111" />

  <rect x="210" y="140" width="950" height="610" fill="#ffffff" stroke="#111111" />
  <line x1="210" y1="190" x2="1160" y2="190" stroke="#111111" />
  <text x="220" y="170" font-family="Arial" font-size="14">Mon</text>
  <text x="350" y="170" font-family="Arial" font-size="14">Tue</text>
  <text x="480" y="170" font-family="Arial" font-size="14">Wed</text>
  <text x="610" y="170" font-family="Arial" font-size="14">Thu</text>
  <text x="740" y="170" font-family="Arial" font-size="14">Fri</text>
  <text x="870" y="170" font-family="Arial" font-size="14">Sat</text>
  <text x="1000" y="170" font-family="Arial" font-size="14">Sun</text>

  <line x1="210" y1="190" x2="210" y2="750" stroke="#111111" />
  <line x1="210" y1="260" x2="1160" y2="260" stroke="#dddddd" />
  <line x1="210" y1="330" x2="1160" y2="330" stroke="#dddddd" />
  <line x1="210" y1="400" x2="1160" y2="400" stroke="#dddddd" />
  <line x1="210" y1="470" x2="1160" y2="470" stroke="#dddddd" />
  <line x1="210" y1="540" x2="1160" y2="540" stroke="#dddddd" />
  <line x1="210" y1="610" x2="1160" y2="610" stroke="#dddddd" />
  <line x1="210" y1="680" x2="1160" y2="680" stroke="#dddddd" />

  <text x="215" y="220" font-family="Arial" font-size="12">8a</text>
  <text x="215" y="290" font-family="Arial" font-size="12">10a</text>
  <text x="215" y="360" font-family="Arial" font-size="12">12p</text>
  <text x="215" y="430" font-family="Arial" font-size="12">2p</text>
  <text x="215" y="500" font-family="Arial" font-size="12">4p</text>
  <text x="215" y="570" font-family="Arial" font-size="12">6p</text>
  <text x="215" y="640" font-family="Arial" font-size="12">8p</text>

  <rect x="260" y="260" width="110" height="70" fill="#e8f4ff" stroke="#111111" />
  <text x="270" y="300" font-family="Arial" font-size="12">Event A</text>

  <rect x="520" y="400" width="110" height="100" fill="#ffe9e9" stroke="#111111" />
  <text x="530" y="450" font-family="Arial" font-size="12">Event B</text>

  <rect x="910" y="330" width="110" height="140" fill="#e9ffe9" stroke="#111111" />
  <text x="920" y="400" font-family="Arial" font-size="12">Event C</text>
</svg>
